<svg width="204" height="47" viewBox="0 0 204 47" fill="none" xmlns="http://www.w3.org/2000/svg">
<path d="M16.099 1.38725C26.0172 1.38725 32.5873 7.38871 32.5873 16.612C32.5873 25.709 26.0172 31.1419 16.099 31.1419H10.5398V45.6085H0.368896V1.38725H16.099ZM15.4673 22.4871C19.5736 22.4871 22.4164 21.0341 22.4164 16.612C22.4164 12.253 19.5736 10.7369 15.4673 10.7369H10.5398V22.4871H15.4673ZM54.3189 12.1899C61.7733 12.1899 71.6283 17.8123 71.6283 29.3098C71.6283 40.8705 61.7733 46.2403 54.3189 46.2403C46.8644 46.2403 37.0094 40.8705 37.0094 29.3098C37.0094 17.8123 46.8644 12.1899 54.3189 12.1899ZM54.3189 20.971C50.5285 20.971 46.6749 23.8769 46.6749 29.3098C46.6749 34.5532 50.5285 37.4592 54.3189 37.4592C58.1093 37.4592 62.026 34.5532 62.026 29.3098C62.026 23.8769 58.1093 20.971 54.3189 20.971ZM87.0426 0.945038V45.6085H77.0612V0.945038H87.0426ZM117.113 12.7584H127.094V45.6085H117.113V42.3235C116.671 43.4606 113.702 46.2403 108.648 46.2403C101.13 46.2403 92.4755 40.8705 92.4755 29.1203C92.4755 17.8123 101.13 12.1899 108.648 12.1899C113.702 12.1899 116.671 15.0958 117.113 15.7908V12.7584ZM110.101 37.4592C114.207 37.4592 117.555 34.6164 117.555 29.1203C117.555 23.8138 114.207 20.971 110.101 20.971C105.805 20.971 102.141 23.8769 102.141 29.1203C102.141 34.5532 105.805 37.4592 110.101 37.4592ZM154.638 12.253C155.522 12.253 156.407 12.253 157.228 12.4426V21.9817C156.47 21.7922 155.586 21.7922 154.954 21.7922C148.889 21.7922 144.025 26.1512 143.52 32.2158V45.6085H133.538V12.7584H143.52V20.7814C145.036 15.8539 148.826 12.253 154.638 12.253ZM172.326 0.945038V9.34708H162.345V0.945038H172.326ZM172.326 12.7584V45.6085H162.345V12.7584H172.326ZM194.374 23.1189C193.49 20.8446 192.163 20.0865 190.71 20.0865C189.383 20.0865 188.057 20.8446 188.057 22.1081C188.057 23.3084 188.815 24.0033 190.268 24.5087L194.437 25.9616C199.112 27.6673 203.85 29.373 203.85 35.943C203.85 42.5762 197.217 46.3666 190.394 46.3666C184.266 46.3666 178.517 42.7657 177.128 37.017L184.961 34.5532C185.782 36.3852 187.235 38.4699 190.394 38.4699C192.542 38.4699 193.932 37.0801 193.932 35.8167C193.932 35.1849 193.426 34.3637 191.847 33.732L187.993 32.3421C181.423 29.9416 178.328 26.5934 178.328 21.9186C178.328 15.7908 184.014 12.1899 190.268 12.1899C196.648 12.1899 200.881 15.6644 202.776 20.9078L194.374 23.1189Z" fill="#FEEB88"/>
</svg>
