<svg width="292" height="54" viewBox="0 0 292 54" fill="none" xmlns="http://www.w3.org/2000/svg">
<g clip-path="url(#clip0_25_2)">
<path d="M15.4711 47.5823C16.8018 48.9129 16.8018 51.0687 15.4711 52.3993C14.8057 53.0647 13.932 53.3973 13.0582 53.3973C12.1889 53.3973 11.3195 53.0646 10.6541 52.3993C3.78348 45.5331 0 36.4047 0 26.6998C0 16.9948 3.77908 7.86655 10.6453 1.00914C11.9759 -0.32152 14.1317 -0.32152 15.4623 1.00914C16.793 2.3398 16.793 4.49554 15.4623 5.8262C9.88237 11.3972 6.81298 18.8135 6.81298 26.6998C6.81298 34.5861 9.88677 42.0024 15.4711 47.5823ZM62.0177 0.995798C60.6827 -0.334862 58.5269 -0.330463 57.2007 1.0002C55.87 2.33086 55.87 4.4866 57.2007 5.81726C62.785 11.3927 65.8588 18.8089 65.8588 26.6998C65.8588 34.5862 62.7894 41.9979 57.214 47.5779C55.8833 48.9085 55.8833 51.0643 57.214 52.3949C57.8794 53.0603 58.7532 53.3929 59.6225 53.3929C60.4963 53.3929 61.3657 53.0602 62.0311 52.3949C68.8927 45.5286 72.6718 36.4047 72.6718 26.6998C72.6718 16.986 68.8883 7.85761 62.0177 0.995798ZM21.5744 26.6998C21.5744 22.7566 23.1092 19.0529 25.8947 16.2584C27.2254 14.9278 27.2254 12.772 25.8947 11.4414C24.5641 10.1107 22.4083 10.1107 21.0777 11.4414C17.0059 15.5222 14.7615 20.938 14.7615 26.6998C14.7615 32.466 17.0059 37.8863 21.0866 41.958C21.752 42.6234 22.6214 42.956 23.4951 42.956C24.3689 42.956 25.2383 42.6233 25.9037 41.958C27.2343 40.6273 27.2343 38.4672 25.9037 37.1409C23.1092 34.351 21.5744 30.6475 21.5744 26.6998ZM51.5853 11.4415C50.2503 10.1065 48.0945 10.1153 46.7683 11.4415C45.4376 12.7722 45.4376 14.9279 46.7683 16.2586C49.5582 19.0485 51.0974 22.7566 51.0974 26.6998C51.0974 30.6475 49.5626 34.3556 46.7771 37.1411C45.4464 38.4717 45.4464 40.6275 46.7771 41.9581C47.4425 42.6236 48.3119 42.9561 49.1856 42.9561C50.0594 42.9561 50.9287 42.6234 51.5942 41.9581C55.666 37.8863 57.9104 32.466 57.9104 26.6998C57.9104 20.9336 55.666 15.5178 51.5853 11.4415ZM36.3359 19.8868C32.5746 19.8868 29.5229 22.9384 29.5229 26.6998C29.5229 30.4655 32.5746 33.5127 36.3359 33.5127C40.1016 33.5127 43.1489 30.4655 43.1489 26.6998C43.1489 22.9384 40.1016 19.8868 36.3359 19.8868Z" fill="#FEDC02"/>
<path d="M104.099 4.38725C114.017 4.38725 120.587 10.3887 120.587 19.612C120.587 28.709 114.017 34.1419 104.099 34.1419H98.5398V48.6085H88.3689V4.38725H104.099ZM103.467 25.4871C107.574 25.4871 110.416 24.0341 110.416 19.612C110.416 15.253 107.574 13.7369 103.467 13.7369H98.5398V25.4871H103.467ZM142.319 15.1899C149.773 15.1899 159.628 20.8123 159.628 32.3098C159.628 43.8705 149.773 49.2403 142.319 49.2403C134.864 49.2403 125.009 43.8705 125.009 32.3098C125.009 20.8123 134.864 15.1899 142.319 15.1899ZM142.319 23.971C138.528 23.971 134.675 26.8769 134.675 32.3098C134.675 37.5532 138.528 40.4592 142.319 40.4592C146.109 40.4592 150.026 37.5532 150.026 32.3098C150.026 26.8769 146.109 23.971 142.319 23.971ZM175.043 3.94504V48.6085H165.061V3.94504H175.043ZM205.113 15.7584H215.094V48.6085H205.113V45.3235C204.671 46.4606 201.702 49.2403 196.648 49.2403C189.13 49.2403 180.476 43.8705 180.476 32.1203C180.476 20.8123 189.13 15.1899 196.648 15.1899C201.702 15.1899 204.671 18.0958 205.113 18.7908V15.7584ZM198.101 40.4592C202.207 40.4592 205.555 37.6164 205.555 32.1203C205.555 26.8138 202.207 23.971 198.101 23.971C193.805 23.971 190.141 26.8769 190.141 32.1203C190.141 37.5532 193.805 40.4592 198.101 40.4592ZM242.638 15.253C243.522 15.253 244.407 15.2531 245.228 15.4426V24.9817C244.47 24.7922 243.586 24.7922 242.954 24.7922C236.889 24.7922 232.025 29.1512 231.519 35.2158V48.6085H221.538V15.7584H231.519V23.7814C233.036 18.8539 236.826 15.253 242.638 15.253ZM260.326 3.94504V12.3471H250.345V3.94504H260.326ZM260.326 15.7584V48.6085H250.345V15.7584H260.326ZM282.374 26.1189C281.49 23.8446 280.163 23.0865 278.71 23.0865C277.383 23.0865 276.057 23.8446 276.057 25.1081C276.057 26.3084 276.815 27.0033 278.268 27.5087L282.437 28.9616C287.112 30.6673 291.85 32.373 291.85 38.943C291.85 45.5762 285.217 49.3666 278.394 49.3666C272.266 49.3666 266.517 45.7657 265.128 40.017L272.961 37.5532C273.782 39.3852 275.235 41.4699 278.394 41.4699C280.542 41.4699 281.932 40.0801 281.932 38.8167C281.932 38.1849 281.426 37.3637 279.847 36.732L275.993 35.3421C269.423 32.9416 266.328 29.5934 266.328 24.9186C266.328 18.7908 272.014 15.1899 278.268 15.1899C284.648 15.1899 288.881 18.6644 290.776 23.9078L282.374 26.1189Z" fill="#FEEB88"/>
</g>
<defs>
<clipPath id="clip0_25_2">
<rect width="291.85" height="53.3973" fill="white"/>
</clipPath>
</defs>
</svg>
