<svg
  width="73"
  height="54"
  viewBox="0 0 73 54"
  fill="none"
  xmlns="http://www.w3.org/2000/svg"
>
  <path
    d="M15.4711 47.5823C16.8018 48.9129 16.8018 51.0687 15.4711 52.3993C14.8057 53.0647 13.932 53.3973 13.0582 53.3973C12.1889 53.3973 11.3195 53.0646 10.6541 52.3993C3.78348 45.5331 0 36.4047 0 26.6998C0 16.9948 3.77908 7.86655 10.6453 1.00914C11.9759 -0.32152 14.1317 -0.32152 15.4623 1.00914C16.793 2.3398 16.793 4.49554 15.4623 5.8262C9.88237 11.3972 6.81298 18.8135 6.81298 26.6998C6.81298 34.5861 9.88677 42.0024 15.4711 47.5823ZM62.0177 0.995798C60.6827 -0.334862 58.5269 -0.330463 57.2007 1.0002C55.87 2.33086 55.87 4.4866 57.2007 5.81726C62.785 11.3927 65.8588 18.8089 65.8588 26.6998C65.8588 34.5862 62.7894 41.9979 57.214 47.5779C55.8833 48.9085 55.8833 51.0643 57.214 52.3949C57.8794 53.0603 58.7532 53.3929 59.6225 53.3929C60.4963 53.3929 61.3657 53.0602 62.0311 52.3949C68.8927 45.5286 72.6718 36.4047 72.6718 26.6998C72.6718 16.986 68.8883 7.85761 62.0177 0.995798ZM21.5744 26.6998C21.5744 22.7566 23.1092 19.0529 25.8947 16.2584C27.2254 14.9278 27.2254 12.772 25.8947 11.4414C24.5641 10.1107 22.4083 10.1107 21.0777 11.4414C17.0059 15.5222 14.7615 20.938 14.7615 26.6998C14.7615 32.466 17.0059 37.8863 21.0866 41.958C21.752 42.6234 22.6214 42.956 23.4951 42.956C24.3689 42.956 25.2383 42.6233 25.9037 41.958C27.2343 40.6273 27.2343 38.4672 25.9037 37.1409C23.1092 34.351 21.5744 30.6475 21.5744 26.6998ZM51.5853 11.4415C50.2503 10.1065 48.0945 10.1153 46.7683 11.4415C45.4376 12.7722 45.4376 14.9279 46.7683 16.2586C49.5582 19.0485 51.0974 22.7566 51.0974 26.6998C51.0974 30.6475 49.5626 34.3556 46.7771 37.1411C45.4464 38.4717 45.4464 40.6275 46.7771 41.9581C47.4425 42.6236 48.3119 42.9561 49.1856 42.9561C50.0594 42.9561 50.9287 42.6234 51.5942 41.9581C55.666 37.8863 57.9104 32.466 57.9104 26.6998C57.9104 20.9336 55.666 15.5178 51.5853 11.4415ZM36.3359 19.8868C32.5746 19.8868 29.5229 22.9384 29.5229 26.6998C29.5229 30.4655 32.5746 33.5127 36.3359 33.5127C40.1016 33.5127 43.1489 30.4655 43.1489 26.6998C43.1489 22.9384 40.1016 19.8868 36.3359 19.8868Z"
    fill="#FEDC02"
  />
</svg>
